<?xml version="1.0" standalone="no"?>
<!DOCTYPE svg PUBLIC "-//W3C//DTD SVG 20010904//EN"
 "http://www.w3.org/TR/2001/REC-SVG-20010904/DTD/svg10.dtd">
<svg version="1.0" xmlns="http://www.w3.org/2000/svg"
 width="400.000000pt" height="260.000000pt" viewBox="0 0 400.000000 260.000000"
 preserveAspectRatio="xMidYMid meet">

<g transform="translate(0.000000,260.000000) scale(0.100000,-0.100000)"
fill="#000000" stroke="none">
<path d="M0 1300 l0 -1300 2000 0 2000 0 0 1300 0 1300 -2000 0 -2000 0 0
-1300z m2204 820 l216 -151 0 -41 c0 -31 -3 -38 -12 -31 -7 6 -104 74 -216
152 l-202 142 -203 -144 c-112 -79 -209 -147 -216 -151 -9 -6 -11 2 -9 33 3
40 3 40 213 190 116 82 211 150 212 150 1 1 99 -67 217 -149z m19 -191 c109
-62 203 -122 208 -132 6 -10 9 -29 7 -42 -3 -24 -13 -19 -218 101 -118 69
-220 128 -226 131 -7 2 -109 -55 -227 -126 -119 -72 -219 -131 -222 -131 -3 0
-5 17 -3 37 3 37 4 38 223 169 195 118 222 131 240 120 11 -7 109 -64 218
-127z m0 -174 c219 -107 226 -111 232 -143 3 -19 4 -36 2 -38 -2 -2 -106 45
-232 106 -125 60 -232 110 -239 110 -6 0 -112 -49 -235 -110 -122 -60 -225
-110 -227 -110 -10 0 -3 60 9 71 15 14 449 228 458 226 4 -1 108 -51 232 -112z
m4 -171 l241 -88 4 -33 c2 -18 0 -33 -5 -33 -5 0 -116 39 -246 86 l-236 85
-239 -91 c-131 -50 -241 -89 -243 -86 -2 2 0 19 4 37 9 32 13 34 238 120 127
48 232 88 235 89 3 0 114 -39 247 -86z m-32 -164 c324 -87 295 -76 295 -114
l0 -33 -252 68 -253 68 -235 -70 c-129 -39 -242 -72 -250 -75 -13 -3 -15 3
-12 31 4 34 6 35 86 60 229 70 412 121 421 119 6 -2 96 -26 200 -54z m137
-190 l166 -23 6 -30 c3 -17 5 -31 3 -33 -1 -2 -119 13 -260 32 l-258 35 -237
-41 c-130 -22 -247 -42 -259 -45 -20 -5 -23 -1 -23 25 0 19 6 33 17 37 9 4
125 25 257 48 234 40 244 41 331 29 50 -7 165 -22 257 -34z m828 -210 l0 -30
-1170 0 -1170 0 0 30 0 30 1170 0 1170 0 0 -30z m-414 -262 c41 -89 74 -166
74 -170 0 -4 -13 -8 -29 -8 -24 0 -31 6 -45 40 l-16 40 -68 0 -69 0 -18 -40
c-15 -33 -23 -40 -47 -40 -15 0 -28 2 -28 4 0 4 148 325 156 338 9 14 12 9 90
-164z m241 55 l112 -118 1 108 0 107 30 0 30 0 0 -177 -1 -178 -119 123 -120
124 0 -111 0 -111 -30 0 -30 0 0 175 c0 96 3 175 8 175 4 0 57 -53 119 -117z
m-1610 83 c24 -20 25 -26 14 -40 -17 -20 -35 -20 -51 -1 -17 21 -43 19 -64 -4
-24 -26 -16 -36 54 -71 66 -33 80 -52 80 -105 0 -29 -8 -45 -34 -71 -37 -37
-80 -44 -126 -21 -26 13 -63 74 -54 89 10 17 53 8 59 -12 14 -44 79 -49 94 -7
14 37 0 59 -55 83 -60 26 -84 55 -84 100 0 73 107 111 167 60z m-507 -91 c0
-123 14 -169 54 -179 26 -6 64 7 78 28 4 6 8 66 8 134 l0 122 31 0 31 0 -4
-135 -3 -135 -33 -32 c-29 -29 -39 -33 -88 -33 -51 0 -58 3 -90 37 l-34 38 0
130 0 130 25 0 25 0 0 -105z m872 -20 c3 -133 8 -148 58 -160 18 -4 34 0 53
15 27 21 27 23 27 146 l0 124 30 0 30 0 0 -122 c0 -104 -3 -128 -20 -155 -35
-58 -101 -78 -164 -48 -56 27 -66 57 -66 199 l0 126 24 0 c24 0 24 0 28 -125z
m426 107 c47 -37 45 -118 -4 -159 l-27 -21 30 -39 c16 -21 38 -50 48 -65 l17
-28 -33 0 c-31 0 -39 7 -79 67 l-45 66 -3 -67 c-3 -66 -3 -66 -32 -66 l-30 0
0 165 0 165 68 0 c48 0 73 -5 90 -18z m257 -8 c26 -28 35 -97 15 -109 -6 -4 0
-18 15 -37 35 -42 34 -91 -4 -129 -27 -27 -35 -29 -100 -29 l-71 0 0 165 0
165 60 0 c53 0 64 -3 85 -26z m-1261 -266 c7 -12 6 -21 -3 -32 -18 -22 -38
-20 -51 3 -7 15 -6 24 6 36 19 18 33 16 48 -7z m322 8 c15 -12 17 -18 8 -33
-14 -23 -43 -23 -57 -1 -8 12 -7 21 2 32 16 20 22 20 47 2z m464 -211 c0 -69
-3 -85 -15 -85 -12 0 -15 16 -15 85 0 69 3 85 15 85 12 0 15 -16 15 -85z m520
0 c0 -50 -4 -85 -10 -85 -6 0 -10 35 -10 85 0 50 4 85 10 85 6 0 10 -35 10
-85z m-1523 60 c8 -23 -2 -28 -27 -15 -31 17 -70 -11 -70 -49 0 -39 22 -55 65
-48 25 4 35 2 35 -8 0 -33 -73 -33 -105 0 -52 51 -17 135 56 135 26 0 42 -5
46 -15z m819 4 c10 -17 -13 -36 -27 -22 -12 12 -4 33 11 33 5 0 12 -5 16 -11z
m385 1 c23 -13 25 -47 4 -70 -14 -15 -13 -20 5 -43 24 -30 25 -37 6 -37 -8 0
-24 12 -35 28 l-20 27 -1 -27 c0 -18 -5 -28 -15 -28 -12 0 -15 16 -15 80 0 79
0 80 26 80 14 0 34 -5 45 -10z m539 -5 c0 -10 -10 -15 -30 -15 -20 0 -30 -5
-30 -15 0 -10 10 -15 30 -15 20 0 30 -5 30 -15 0 -10 -10 -15 -30 -15 -23 0
-30 -4 -30 -20 0 -16 7 -20 30 -20 20 0 30 -5 30 -15 0 -11 -12 -15 -45 -15
l-45 0 0 80 0 80 45 0 c33 0 45 -4 45 -15z m150 -24 c0 -11 6 -22 13 -25 10
-5 10 -7 0 -12 -7 -3 -13 -23 -13 -45 0 -27 -4 -39 -14 -39 -15 0 -26 74 -18
118 5 27 32 30 32 3z m190 0 c0 -11 6 -22 13 -25 10 -5 10 -7 0 -12 -7 -3 -13
-23 -13 -45 0 -27 -4 -39 -14 -39 -15 0 -26 74 -18 118 5 27 32 30 32 3z
m-1982 -27 c24 -17 30 -62 10 -82 -7 -7 -24 -12 -38 -12 -33 0 -50 17 -50 51
0 24 30 59 50 59 3 0 16 -7 28 -16z m181 2 c17 -11 14 -96 -4 -96 -11 0 -15
11 -15 41 0 52 -24 48 -28 -4 -4 -41 -22 -51 -22 -13 0 13 -3 31 -6 40 -11 29
-24 16 -24 -24 0 -29 -4 -40 -15 -40 -11 0 -15 12 -15 49 0 44 3 50 23 53 33
6 92 2 106 -6z m164 5 c11 -1 9 -101 -2 -101 -6 0 -11 17 -13 37 -4 52 -28 56
-28 4 0 -30 -4 -41 -15 -41 -11 0 -15 11 -15 40 0 40 -13 53 -24 24 -3 -9 -6
-27 -6 -40 0 -13 -4 -24 -10 -24 -5 0 -10 22 -10 49 0 39 4 50 18 54 14 3 72
2 105 -2z m116 -10 c19 -19 22 -55 7 -79 -9 -16 -58 -16 -74 0 -17 17 -15 58
5 80 21 23 38 23 62 -1z m108 2 c2 -6 -5 -13 -17 -16 -15 -4 -20 -13 -20 -41
0 -25 -4 -36 -15 -36 -11 0 -15 12 -15 49 0 44 3 50 23 54 29 5 40 3 44 -10z
m91 -4 c2 -11 -4 -15 -20 -15 -14 1 -24 -6 -26 -18 -5 -23 18 -39 35 -24 10 8
13 5 13 -11 0 -16 -6 -21 -24 -21 -53 0 -76 65 -33 95 26 18 51 16 55 -6z
m170 11 c8 0 12 -17 12 -50 l0 -50 -38 0 c-21 0 -43 5 -50 12 -31 31 2 105 43
94 11 -3 26 -6 33 -6z m393 0 c14 -8 19 -21 19 -50 0 -35 -3 -40 -27 -46 -36
-9 -57 7 -61 47 -5 48 27 71 69 49z m130 0 c16 0 19 -7 19 -50 l0 -50 -40 0
c-31 0 -43 5 -55 24 -25 38 4 93 43 80 8 -2 22 -4 33 -4z m368 1 c16 -10 5
-34 -12 -25 -7 3 -1 -3 13 -15 20 -16 23 -23 14 -38 -13 -21 -42 -29 -56 -15
-16 16 1 36 18 21 8 -6 14 -7 14 -3 0 5 -9 15 -20 22 -23 14 -26 32 -8 50 14
14 19 15 37 3z m189 -1 c8 0 12 -16 12 -48 l0 -49 -37 -1 c-20 -1 -42 3 -50 9
-33 28 1 106 42 95 11 -3 26 -6 33 -6z m180 -6 c16 -11 22 -24 20 -42 -3 -38
-16 -52 -49 -52 -49 0 -67 66 -27 94 28 20 28 20 56 0z m-1378 -44 c0 -27 -4
-50 -10 -50 -5 0 -10 23 -10 50 0 28 5 50 10 50 6 0 10 -22 10 -50z"/>
<path d="M2642 764 c-13 -25 -21 -48 -18 -51 2 -2 22 -3 43 -1 l39 3 -21 48
-21 48 -22 -47z"/>
<path d="M2070 810 c0 -55 15 -64 58 -34 43 30 19 84 -37 84 -18 0 -21 -6 -21
-50z"/>
<path d="M2330 815 c0 -38 3 -45 19 -45 11 0 27 7 35 16 31 31 13 74 -31 74
-21 0 -23 -5 -23 -45z"/>
<path d="M2330 675 c0 -44 0 -45 33 -45 33 0 67 24 67 48 0 21 -32 42 -66 42
-34 0 -34 0 -34 -45z"/>
<path d="M2110 439 c0 -24 23 -21 28 4 2 10 -3 17 -12 17 -10 0 -16 -9 -16
-21z"/>
<path d="M1001 397 c-8 -10 -7 -19 4 -33 12 -17 15 -18 30 -3 17 17 11 49 -10
49 -7 0 -18 -6 -24 -13z"/>
<path d="M1460 366 c0 -9 30 -14 35 -6 4 6 -3 10 -14 10 -12 0 -21 -2 -21 -4z"/>
<path d="M1827 403 c-12 -12 -7 -41 7 -46 19 -8 38 16 30 37 -6 16 -25 21 -37
9z"/>
<path d="M2238 403 c7 -3 16 -2 19 1 4 3 -2 6 -13 5 -11 0 -14 -3 -6 -6z"/>
<path d="M2235 360 c3 -5 12 -7 20 -3 21 7 19 13 -6 13 -11 0 -18 -4 -14 -10z"/>
<path d="M2346 394 c-8 -21 11 -45 30 -37 20 7 14 47 -7 51 -9 2 -19 -5 -23
-14z"/>
<path d="M2907 403 c-12 -12 -7 -41 7 -46 19 -8 38 16 30 37 -6 16 -25 21 -37
9z"/>
<path d="M3090 366 c0 -9 30 -14 35 -6 4 6 -3 10 -14 10 -12 0 -21 -2 -21 -4z"/>
</g>
</svg>
